<svg version="1.1" id="Layer_1" xmlns="http://www.w3.org/2000/svg" xmlns:xlink="http://www.w3.org/1999/xlink" x="0px" y="0px"
	 width="100%" viewBox="0 0 1024 1024" enable-background="new 0 0 1024 1024" xml:space="preserve">
<path fill="#000000" opacity="1.000000" stroke="none" 
	d="
M395.306763,746.887695 
	C392.163208,761.693665 389.787506,776.218994 387.991638,790.891052 
	C386.139801,806.019958 385.871094,821.141907 386.303925,836.276550 
	C386.835297,854.858093 388.804932,873.378052 394.555237,891.141052 
	C399.361023,905.986206 409.318176,917.396118 421.360138,927.060913 
	C425.469177,930.358704 429.525146,933.725952 432.498352,939.147339 
	C356.824036,939.147339 281.149689,939.147339 205.572006,939.147339 
	C205.190979,937.122620 206.290207,936.591797 207.324738,936.036987 
	C232.242966,922.671448 249.910019,902.568542 262.959656,877.712280 
	C273.391235,857.842834 280.510681,836.980957 285.295013,815.153931 
	C290.748627,790.273315 295.993652,765.327393 302.292175,740.655701 
	C313.247955,697.741028 332.780090,659.395935 363.400574,626.760681 
	C376.471893,612.829224 390.424774,599.588684 401.657166,583.953430 
	C406.344421,577.428894 408.275238,570.054688 409.991364,562.392883 
	C412.657104,550.491211 414.345428,538.477539 413.594696,526.351074 
	C411.733704,496.291504 403.453369,468.482422 382.587158,445.744110 
	C372.227478,434.454987 359.313232,427.648773 343.852509,426.093506 
	C339.600861,425.665863 337.502960,426.523834 337.883789,431.671997 
	C338.460114,439.463837 338.248108,447.332001 338.048584,455.159485 
	C337.665497,470.189392 340.050018,484.974823 341.422028,499.862915 
	C342.502228,511.584198 344.176727,523.221130 345.475128,534.906311 
	C346.752563,546.403076 348.859314,557.806824 350.547363,569.259460 
	C350.885345,571.552551 351.068756,573.878906 351.147034,576.195862 
	C351.195129,577.620667 351.600250,579.407227 349.773407,580.103943 
	C348.068451,580.754150 347.006256,579.402039 345.911774,578.399597 
	C338.203247,571.339600 333.828400,562.187622 330.065552,552.719116 
	C327.002502,545.011475 324.224854,537.192017 322.465088,529.046021 
	C322.163239,527.648743 321.199341,526.394348 320.435486,524.861755 
	C317.240875,527.229675 317.001862,530.747009 316.072449,533.768738 
	C311.513519,548.590698 309.876862,563.921814 307.964996,579.252869 
	C306.343628,592.254211 304.793579,605.360168 300.807983,617.955200 
	C300.175751,619.953064 299.476318,622.065308 297.130219,623.760986 
	C293.834015,620.697144 293.877289,616.295593 292.930298,612.577209 
	C287.739899,592.197021 287.889160,571.324341 289.180084,550.618835 
	C290.007904,537.341248 292.380859,524.118469 295.764618,511.035858 
	C298.994232,498.549072 305.522034,487.420258 308.599426,475.002197 
	C309.276733,472.268951 310.032532,469.524445 310.354065,466.739136 
	C311.710449,454.988373 310.875793,443.220032 311.071045,430.593445 
	C303.603333,433.663391 298.290314,438.021667 293.756226,443.324371 
	C282.861725,456.065735 276.112854,471.003326 271.156281,486.845856 
	C269.146759,493.268677 267.213348,499.715332 265.075500,506.706543 
	C260.419312,503.336365 260.426941,498.421478 259.548798,494.416870 
	C252.923355,464.202881 260.562805,437.779602 281.816803,415.386719 
	C289.041199,407.775238 297.900146,402.482269 307.912964,399.292694 
	C311.229187,398.236328 312.888458,396.469482 312.817139,392.848694 
	C312.478424,375.655182 314.927490,358.659485 317.072754,341.682312 
	C318.580627,329.749298 321.262634,317.964691 323.420349,306.113831 
	C323.053223,305.869965 322.686066,305.626099 322.318939,305.382233 
	C318.423767,309.988129 314.224457,314.373291 310.691345,319.241882 
	C300.685699,333.029633 293.448608,348.462555 285.070374,363.218719 
	C284.170258,364.804047 283.718506,367.715637 281.063568,366.581940 
	C278.941071,365.675690 280.337708,363.352356 280.462891,361.618103 
	C281.434509,348.156281 283.411346,334.861542 287.925018,322.094177 
	C296.155701,298.813019 308.811737,278.342621 327.040192,261.482391 
	C335.842712,253.340607 344.588226,245.175354 351.935913,235.587067 
	C356.372162,229.798065 361.985565,225.020721 367.766785,220.101059 
	C361.884918,217.108612 355.829926,217.717514 349.977722,218.305634 
	C328.602356,220.453812 312.122620,230.975662 298.627808,247.539017 
	C278.795654,271.880676 266.929047,299.910950 257.839050,329.537598 
	C251.987549,348.609192 247.279419,367.944458 243.667938,387.504639 
	C241.201508,400.863129 239.800919,414.418976 238.948273,428.062317 
	C237.856171,445.537231 236.761795,463.001160 238.056580,480.439178 
	C239.283188,496.959198 239.760406,513.518616 242.753571,529.963318 
	C246.321808,549.567566 251.270920,568.802124 255.660767,588.192688 
	C258.578979,601.082947 261.028717,614.079529 262.307861,627.338928 
	C263.122772,635.786377 263.573517,644.210205 263.961273,652.660706 
	C264.032898,654.222168 264.689545,655.945496 262.553253,657.919250 
	C259.943329,653.877930 257.401581,650.127380 255.046356,646.263123 
	C244.959534,629.713989 238.196564,611.680725 231.768936,593.519592 
	C226.348999,578.205811 221.924606,562.562439 218.985809,546.607239 
	C216.766281,534.557129 215.715881,522.293213 214.393036,510.083252 
	C211.974564,487.760498 213.410614,465.473938 212.849594,443.183228 
	C212.606812,433.537323 212.896164,423.905334 214.387283,414.145111 
	C212.301849,414.543365 211.913239,415.982239 211.432312,417.344788 
	C206.077499,432.515991 199.836151,447.385315 196.044159,463.086823 
	C192.857956,476.279968 189.613556,489.438934 187.045258,502.792694 
	C184.345062,516.832397 182.145248,530.927490 180.627792,545.099792 
	C178.478027,565.177673 179.779739,584.652832 190.055206,603.056458 
	C198.386566,617.978271 205.588394,633.588013 210.537247,650.084595 
	C216.409317,669.658569 219.809265,689.536316 216.989639,709.987366 
	C216.316528,714.869446 216.040482,720.166931 212.063019,725.625793 
	C198.171997,701.141052 191.390305,674.701111 180.111969,649.612610 
	C179.631378,650.654724 179.235229,651.091064 179.282379,651.472656 
	C181.023911,665.569763 179.396942,679.768433 180.692932,693.902100 
	C181.665329,704.506897 181.631104,715.189209 180.474945,725.837036 
	C179.454208,735.237732 180.305023,744.739807 178.189331,754.125916 
	C173.893188,773.185608 169.995605,792.288391 154.011612,805.864624 
	C148.898407,810.207581 142.805634,812.289734 136.534363,814.056519 
	C135.574356,814.326904 134.534058,814.307312 133.831635,813.331543 
	C133.440674,812.473877 133.711395,811.699036 134.181442,810.985168 
	C144.239243,795.710571 148.165558,778.578064 150.030838,760.659058 
	C153.086166,731.307251 154.053223,702.038757 152.286545,672.475708 
	C150.400101,640.909058 150.666061,609.184631 152.008575,577.546692 
	C152.599609,563.618408 154.278381,549.736328 155.463089,535.833252 
	C155.517792,535.191040 155.672836,534.519470 154.654449,533.905579 
	C151.043152,537.549438 148.986404,542.326904 146.613266,546.740295 
	C137.843140,563.050659 131.325150,580.202087 127.784058,598.486694 
	C123.026573,623.052185 118.293633,647.636475 112.747139,672.030151 
	C109.070755,688.198975 104.486763,704.238220 95.622948,718.584839 
	C94.275139,720.766357 93.485573,723.552673 90.527969,724.309998 
	C88.216171,723.188293 88.376915,721.032898 88.133224,719.102539 
	C86.034958,702.481628 87.005478,685.894409 88.255463,669.257141 
	C89.391235,654.139954 91.482018,639.163086 94.123138,624.285461 
	C102.794464,575.439514 119.498642,529.669312 148.698196,489.184235 
	C161.715347,471.135986 170.915726,451.557373 178.012238,430.607422 
	C185.158295,409.511322 194.472488,389.248505 204.351532,369.273987 
	C205.152664,367.654114 205.784363,365.950439 205.969574,363.764496 
	C183.405762,377.159363 162.200226,391.991028 146.667725,413.817078 
	C131.403076,435.266785 122.545906,459.844482 112.293869,484.164948 
	C108.510750,481.824677 109.036850,478.626343 108.872009,475.848450 
	C107.718399,456.408264 111.938469,437.954773 118.729309,419.844421 
	C130.697586,387.926514 152.914658,364.800995 180.636978,346.197937 
	C193.496094,337.568817 206.112778,328.595673 218.698105,319.566376 
	C233.455368,308.978790 241.217773,293.798187 248.232758,277.819580 
	C257.817230,255.988312 270.496948,236.113602 287.404358,219.156998 
	C291.600952,214.948181 296.360260,211.300476 301.182495,207.115753 
	C298.844391,205.655563 296.540039,206.360916 294.382172,206.533279 
	C275.611145,208.032684 258.568054,214.908432 242.299484,223.838837 
	C221.529785,235.240128 204.754517,250.712341 194.315369,272.410126 
	C188.761063,283.954742 185.087463,296.245026 180.013031,307.971863 
	C178.101852,312.388519 175.760071,316.624634 173.492615,320.877991 
	C172.744629,322.281067 171.967529,324.180084 169.851746,323.644897 
	C167.748749,323.112946 168.096008,321.103943 167.925507,319.494751 
	C165.030563,292.171326 171.949783,267.089081 185.702942,243.730881 
	C203.129501,214.133820 229.707993,196.368301 261.650513,185.544449 
	C281.194122,178.922012 301.196533,175.553360 321.802673,176.048065 
	C336.989777,176.412674 351.730377,179.680176 366.162598,184.153214 
	C382.452179,189.201935 397.847687,196.271622 411.438751,206.746170 
	C428.985901,220.269623 443.677002,236.535461 456.862915,254.284317 
	C475.262238,279.050629 488.143890,306.774567 500.716827,334.695709 
	C501.341492,336.082886 501.247589,338.103363 504.016113,338.906921 
	C504.912933,331.614075 505.664703,324.454926 506.696716,317.336426 
	C508.577667,304.362000 509.605408,291.289490 511.413086,278.296753 
	C512.690674,269.114014 514.393372,260.022278 516.027588,250.927765 
	C517.576172,242.309967 520.550476,233.958572 519.694641,224.980835 
	C518.573608,213.220779 516.984314,201.567825 512.336121,190.587204 
	C508.050842,180.464050 501.784485,178.993637 493.318878,186.051010 
	C486.299530,191.902695 483.510376,200.089249 481.261536,208.505936 
	C478.169952,220.076752 476.723511,231.907196 475.944153,243.832947 
	C475.868805,244.985535 475.862183,246.201050 473.602478,247.220459 
	C466.105560,234.599609 455.460480,223.297516 457.010193,206.812515 
	C459.501495,180.310471 472.201019,161.935394 499.104095,155.177124 
	C499.182037,152.273468 497.233185,150.509674 495.736572,148.630707 
	C488.918060,140.070236 479.566589,135.439804 469.071686,134.569992 
	C460.201385,133.834824 452.334991,138.126968 445.675690,144.110855 
	C433.510529,155.042236 426.493774,169.036697 421.880890,184.419052 
	C420.061462,190.486328 419.418854,190.757889 414.332672,186.882797 
	C401.805847,177.338760 401.426819,177.214981 406.269135,162.388062 
	C412.818848,142.333344 423.029358,124.659866 441.893066,113.486008 
	C464.307465,100.208893 489.058411,104.353584 508.071564,120.710678 
	C522.534180,133.152954 530.633728,149.737137 536.885193,167.315750 
	C539.146057,173.673050 540.788269,180.250381 542.859619,187.221664 
	C547.822510,183.888855 549.797791,178.749374 552.924255,174.643494 
	C568.999146,153.532425 588.692139,137.508102 614.690430,130.458557 
	C621.369751,128.647446 628.321960,128.012756 635.372009,127.736649 
	C678.272949,126.056427 715.553894,141.342178 749.533936,165.761383 
	C784.528870,190.909958 810.013489,224.036682 827.727661,263.212891 
	C833.565308,276.123383 837.194275,289.747803 839.832397,303.600128 
	C840.850769,308.947388 839.987061,314.567535 840.932129,320.016144 
	C841.106079,321.019196 840.519348,321.953339 839.195618,322.263672 
	C837.269958,322.091125 836.805115,320.238800 836.020691,318.899902 
	C819.014160,289.874298 801.461487,261.198242 780.647278,234.693314 
	C774.962769,227.454651 769.022461,220.324814 761.453857,214.747894 
	C766.107056,224.136719 771.130493,233.267029 775.129822,242.873718 
	C784.523743,265.438354 791.350769,288.747192 795.528076,312.864410 
	C796.826660,320.361847 798.895386,327.710785 799.398438,335.368561 
	C799.657288,339.309387 801.312317,341.260437 806.108582,342.062195 
	C839.630676,347.665924 867.030762,364.064697 888.410034,390.492310 
	C900.535156,405.480621 908.609131,422.563812 913.672913,441.025574 
	C917.147400,453.692932 919.093872,466.659149 918.132629,479.895721 
	C918.038025,481.197174 918.326233,482.872131 916.680847,483.257050 
	C914.848694,483.685669 914.188477,482.152283 913.515198,480.727264 
	C907.337219,467.652069 901.760193,454.241516 894.778687,441.608032 
	C879.756836,414.424805 860.502502,391.210754 830.912109,378.653320 
	C830.147400,378.328766 829.431641,377.871307 828.648010,377.611786 
	C825.665161,376.623962 822.663818,375.691956 819.473877,374.974487 
	C826.198914,380.794342 832.475098,386.989777 837.818176,394.075897 
	C850.984802,411.538239 860.426758,430.853333 866.204956,451.911560 
	C871.805969,472.324097 881.367981,490.866394 892.327332,508.794556 
	C903.000305,526.254272 913.779907,543.677246 920.772034,563.048279 
	C926.632874,579.285034 931.241089,595.914062 934.611084,612.831970 
	C938.213440,630.916321 940.734070,649.165039 941.392761,667.645020 
	C941.685181,675.850891 940.318298,683.926819 940.110657,692.083618 
	C940.062927,693.958618 939.565308,696.023254 937.511902,696.491821 
	C935.700745,696.905029 934.529236,695.224487 933.559509,693.894714 
	C927.812683,686.014160 924.049988,677.149841 921.299072,667.884460 
	C914.654053,645.503601 909.491272,622.758057 904.397949,599.976501 
	C900.309143,581.687744 894.868469,563.723511 883.792542,548.111938 
	C882.753235,546.647156 881.986145,544.903381 879.839905,544.176758 
	C878.080688,548.006714 880.186218,551.637756 880.317200,555.299683 
	C881.114807,577.600403 882.318115,599.890747 882.811218,622.197144 
	C883.227295,641.017395 884.003540,659.818237 885.046082,678.602417 
	C886.626709,707.082703 893.421692,734.293396 906.180725,759.913391 
	C906.387573,760.328857 906.340942,760.870544 906.462524,761.690613 
	C901.558167,763.631958 897.359497,761.412537 893.444641,759.220764 
	C878.946594,751.103882 870.667419,737.904236 865.747131,722.692017 
	C858.336304,699.779602 856.163513,676.078064 855.584839,652.024048 
	C854.975891,626.712463 854.946655,601.385193 853.880493,576.085938 
	C853.701660,571.841736 852.964661,567.621033 852.113037,563.347290 
	C841.918335,588.416748 834.222290,614.371826 822.747620,640.046326 
	C819.032471,634.250549 818.005920,628.942139 817.168457,623.918945 
	C814.940186,610.554077 815.816711,597.274597 818.472168,583.858093 
	C822.070862,565.676270 829.049866,548.630249 834.419128,531.053223 
	C840.515381,511.096283 842.635559,490.952087 839.947998,470.167419 
	C837.791260,453.487823 832.504150,437.991638 824.602173,423.287445 
	C821.140381,416.845703 816.885254,410.962677 810.843262,405.788940 
	C810.648560,442.192352 812.447998,478.713531 798.171814,513.760681 
	C795.055054,511.261139 795.172302,508.022430 794.829834,505.059723 
	C792.944885,488.751556 790.605408,472.470276 789.497986,456.106964 
	C788.779907,445.497223 787.937195,434.899048 786.997375,424.312805 
	C785.882690,411.756683 784.415833,399.231354 783.046204,386.698700 
	C782.531982,381.994263 778.323425,381.262268 775.047974,380.211029 
	C753.663818,373.348022 738.125183,374.601105 719.779236,392.490234 
	C719.326233,392.931976 719.064514,393.569763 718.876282,393.862823 
	C718.794006,395.170258 719.463135,395.706085 720.098145,396.230713 
	C739.125366,411.951355 751.224365,432.446442 760.073364,455.025269 
	C766.914185,472.480164 771.723633,490.536011 775.359558,508.963776 
	C777.672852,520.687561 778.974670,532.486206 780.563538,544.290405 
	C783.494812,566.068970 784.277283,588.011414 786.537659,609.809021 
	C788.020264,624.105835 793.064148,637.891907 799.736145,650.836304 
	C809.726990,670.219788 815.684265,690.737305 818.145874,712.428162 
	C821.396790,741.073059 823.231445,769.765564 823.213623,798.596069 
	C823.210266,804.030029 821.357727,809.072388 821.008240,814.389404 
	C820.918823,815.749878 820.105408,817.040710 818.728394,817.433594 
	C816.889832,817.958191 816.086792,816.396301 815.275513,815.171814 
	C808.582703,805.070374 804.412048,793.914001 801.969543,782.129944 
	C798.927307,767.452332 797.779724,752.546814 796.541748,737.616760 
	C794.952271,718.446167 791.188843,699.625427 783.394226,681.843689 
	C782.822144,680.538696 781.956726,679.362366 780.553467,677.989380 
	C776.356934,703.039978 768.589722,726.388916 752.048035,745.956360 
	C749.302917,744.465271 749.812134,742.626648 749.775269,741.043030 
	C749.495483,729.032166 751.302185,717.237488 753.341370,705.446777 
	C754.215332,700.393677 754.966003,695.181580 755.197693,690.172363 
	C755.636841,680.677063 757.083740,671.304260 757.907288,661.881958 
	C759.797607,640.255615 759.744019,618.630371 759.533630,596.991333 
	C759.404297,583.686340 757.505005,570.490234 756.170471,557.257141 
	C755.104126,546.683044 753.499390,536.215027 751.693298,525.775208 
	C750.288513,517.655334 748.239563,509.646912 745.935608,501.539093 
	C740.148376,526.646667 733.835144,551.513489 726.056274,575.972717 
	C723.057800,575.720886 722.518066,573.737610 722.003601,571.823914 
	C717.647278,555.620422 715.902283,539.372375 718.099548,522.477417 
	C720.735901,502.206299 722.316650,481.769775 723.580261,461.356964 
	C724.620483,444.552887 717.474304,430.994751 704.352844,420.615265 
	C698.934570,416.329285 698.306702,416.423859 694.149048,421.907776 
	C688.022888,429.988159 682.508118,438.478424 675.887207,446.248901 
	C663.030762,461.337677 647.060242,472.286316 630.506714,482.636719 
	C628.184204,484.088898 625.319580,484.880463 623.602356,487.743835 
	C630.034058,493.428070 637.007385,498.423737 642.005737,505.345581 
	C654.124817,522.128723 669.209290,536.409363 681.887390,552.682983 
	C692.017822,565.686707 698.128845,580.823059 702.335754,596.713135 
	C705.999695,610.552124 708.693298,624.523193 708.411743,638.940308 
	C708.220032,648.758911 708.212708,658.580994 708.085388,668.401062 
	C708.068542,669.701111 708.148376,671.282471 706.396729,671.579163 
	C704.572266,671.888184 703.826477,670.381653 703.001770,669.127441 
	C697.181763,660.276245 693.882385,650.358765 690.724182,640.363770 
	C684.777161,621.542847 679.401367,602.490173 669.075623,585.389893 
	C668.228455,583.986877 667.799133,582.288879 666.210938,581.405945 
	C664.709656,581.693726 665.163330,582.916870 665.167664,583.771667 
	C665.292786,608.420593 666.520508,633.038696 669.373962,657.499634 
	C670.452087,666.740845 675.383789,675.039062 681.383240,682.377136 
	C691.862488,695.194824 700.951965,708.796265 706.747314,724.492798 
	C710.357605,734.270996 712.329773,744.374023 713.042847,754.605652 
	C713.839783,766.041382 714.618530,777.555298 713.331665,789.048096 
	C713.018311,791.846863 712.926697,794.674072 710.702454,796.993469 
	C707.380127,795.907104 705.741150,793.195374 704.004272,790.589233 
	C697.248657,780.452454 694.083435,768.840149 690.889587,757.346069 
	C686.157898,740.317688 678.296875,724.954285 667.174316,709.520325 
	C667.568359,721.543884 665.795044,732.260132 666.518433,743.157471 
	C667.288513,754.758484 667.395996,766.407227 669.006104,777.944885 
	C670.540588,788.940430 672.295776,799.905518 673.775574,810.908020 
	C675.034302,820.266663 677.177490,829.410583 679.410583,838.575684 
	C681.939270,848.953796 686.456665,858.599792 689.578796,868.740173 
	C691.037781,873.479004 690.443909,874.397827 685.496033,874.065002 
	C676.910706,873.487427 670.663879,868.576294 665.433350,862.278015 
	C657.865479,853.165527 653.264404,842.448059 649.871216,831.261353 
	C644.542358,813.693176 642.469910,795.659668 641.636475,777.301514 
	C641.139709,766.358276 641.123047,755.386169 640.593445,743.713684 
	C637.210144,745.786987 635.511597,748.536560 633.681885,751.151489 
	C624.358643,764.475891 618.636597,779.674011 611.393005,794.078979 
	C609.377136,798.087952 607.711243,802.271545 605.792175,806.331299 
	C605.042542,807.917114 604.655579,809.913940 601.895630,810.409058 
	C599.114014,805.730408 597.985779,800.387024 597.799622,795.015869 
	C596.694458,763.129211 607.376831,735.728149 629.637878,712.852234 
	C631.962280,710.463684 634.221619,708.011597 636.560974,705.638062 
	C638.626587,703.542236 640.082764,701.082520 640.209412,698.160095 
	C640.921326,681.743408 642.748840,665.354187 641.708862,648.238159 
	C639.029968,650.494568 638.425049,653.341797 637.189697,655.742676 
	C628.765503,672.114502 618.569336,686.973267 602.169312,696.429932 
	C594.913147,700.613953 587.283142,703.848694 578.608765,703.330505 
	C577.010315,703.234985 575.254028,703.840637 573.940491,702.423401 
	C573.232483,700.744385 574.428040,699.932678 575.369385,699.016724 
	C593.347412,681.524475 605.665344,660.332397 615.233276,637.430359 
	C621.496704,622.437866 627.386963,607.221191 630.458191,591.228760 
	C633.027344,577.851013 634.026489,564.392334 631.241028,550.644226 
	C627.975830,534.527527 620.018372,521.978943 606.464966,513.065491 
	C595.624878,505.936462 584.000000,505.769012 572.908447,512.189026 
	C558.381165,520.597778 543.588135,528.567932 530.114624,538.781555 
	C518.398987,547.662537 508.611450,558.311279 500.252777,570.111267 
	C476.772369,603.258789 453.259094,636.363525 428.866547,668.861084 
	C413.151184,689.798340 402.711731,713.519226 397.112091,739.226196 
	C396.580536,741.666565 395.960052,744.087585 395.306763,746.887695 
M632.522217,255.747284 
	C630.326233,252.285706 629.301331,254.471420 628.166321,256.608429 
	C622.895630,266.532471 615.678101,274.632446 605.841431,280.246613 
	C604.537537,280.990814 603.154053,281.843781 601.630249,281.003326 
	C599.916321,280.058044 600.590332,278.408295 600.703247,276.958435 
	C601.467102,267.147491 603.384033,257.613617 606.374695,248.192612 
	C611.203979,232.979553 615.123108,217.579086 612.804626,201.291458 
	C611.576904,192.666000 600.073425,182.797836 592.050537,184.614807 
	C583.647095,186.517990 576.940063,191.285156 572.112061,198.599243 
	C566.664856,206.851395 563.181213,216.030670 559.418640,225.070145 
	C553.533630,239.209000 549.318298,253.907349 546.711914,268.949280 
	C545.853394,273.903687 543.364624,279.022491 544.964905,284.446136 
	C547.105286,284.175812 548.794373,284.145569 550.384338,283.733276 
	C565.913452,279.706573 579.051941,284.675964 589.887573,295.436890 
	C604.482605,309.931274 609.029968,329.016113 611.111938,348.547791 
	C612.822937,364.598755 612.552307,380.753510 609.458435,396.779510 
	C606.837402,410.356110 602.543091,423.151917 594.211426,434.333160 
	C593.054077,435.886261 592.173157,438.386108 589.113403,437.565033 
	C587.855957,434.629211 589.002808,431.735413 589.240967,428.829102 
	C590.344238,415.367340 590.491577,401.887970 589.234497,388.438843 
	C588.386292,379.364960 587.083862,370.333832 586.005859,361.281067 
	C584.530396,348.890076 582.160400,336.713470 576.823303,325.328949 
	C574.453003,320.272919 571.363647,315.771942 565.439026,314.253265 
	C555.777710,311.776764 546.049805,317.929993 543.039612,329.013214 
	C539.570007,341.788330 539.724915,355.042084 539.269714,368.112335 
	C538.806091,381.422729 536.935059,394.602936 536.587708,407.937500 
	C536.373169,416.174866 535.907898,424.581390 534.818970,432.797211 
	C532.443176,450.721527 529.669861,468.600769 525.974182,486.321930 
	C525.509216,488.551453 523.137024,490.701141 525.283691,493.540863 
	C530.095825,492.095154 534.129150,489.108856 538.515442,486.878723 
	C559.729675,476.092987 582.344666,468.586761 603.999084,458.834015 
	C627.833191,448.099548 648.218506,433.123779 663.237427,411.351685 
	C673.283691,396.788239 684.362976,383.028320 697.499939,371.116272 
	C711.075684,358.806488 726.044861,348.725739 744.192993,344.291138 
	C753.288391,342.068604 762.609009,341.671448 771.891052,341.026672 
	C775.229431,340.794769 776.216736,339.335815 775.409912,336.114258 
	C770.424377,316.206360 765.174805,296.372589 759.022461,276.788483 
	C756.372070,268.352142 753.762085,259.892609 749.112671,252.148102 
	C750.003906,266.393585 748.254333,280.276611 745.170044,294.016449 
	C743.046814,303.474945 739.767151,312.501526 734.374084,320.648315 
	C733.481201,321.997131 732.737366,323.701385 730.340149,322.927307 
	C727.603333,315.674805 727.047241,307.836121 725.990784,300.208099 
	C724.351624,288.372864 723.884216,276.380035 722.706421,264.475159 
	C720.727356,244.472427 718.464966,224.505463 711.016113,205.585739 
	C704.385742,188.745071 694.903564,174.366333 678.069275,165.845444 
	C669.057678,161.284073 659.705627,157.832626 649.773254,156.718414 
	C637.742004,155.368729 625.675232,155.599884 613.954224,160.903061 
	C614.684265,161.699020 615.034790,162.308044 615.561340,162.622391 
	C630.664001,171.638489 640.152588,185.243439 646.894775,201.049576 
	C651.288818,211.350677 656.520813,221.166290 663.662842,229.825089 
	C681.690063,251.680679 695.081116,275.913391 701.788818,303.591278 
	C704.620544,315.275848 705.020691,326.940033 700.562622,338.384705 
	C699.847900,340.219574 699.067139,342.396027 696.694153,342.432770 
	C694.270813,342.470337 694.268311,340.192657 693.672180,338.486420 
	C687.012268,319.425751 678.537415,301.235413 667.429199,284.332214 
	C666.221252,282.493988 665.724792,279.966461 663.141052,279.197571 
	C662.958740,279.595428 662.716064,279.875153 662.720520,280.150909 
	C663.072876,301.953735 664.898438,323.727325 664.080444,345.552338 
	C663.624695,357.712921 662.342224,369.768707 658.055237,381.272186 
	C654.945679,389.616272 650.777405,397.350128 643.756226,403.156158 
	C642.536682,404.164642 641.231873,405.767914 639.402161,404.692139 
	C637.854492,403.782227 638.416809,402.041687 638.497253,400.571136 
	C638.815063,394.759857 639.379883,388.939636 639.638428,383.156342 
	C640.665039,360.191772 641.154785,337.174469 639.660156,314.228851 
	C639.132629,306.131348 638.846985,297.965607 637.687683,289.863831 
	C636.092529,278.715942 634.800537,267.525726 632.522217,255.747284 
M442.111145,483.560120 
	C446.203979,494.130341 448.132324,505.316772 450.753510,516.590332 
	C453.130188,515.235229 453.855621,513.548218 454.600983,511.906250 
	C465.375610,488.170227 475.677460,464.214630 480.047333,438.333405 
	C481.247589,431.224670 482.490082,423.874634 481.754578,416.517334 
	C480.154266,400.509735 477.287170,384.789093 473.276581,369.145996 
	C468.064514,348.816711 460.425751,329.469025 452.273834,310.270050 
	C449.125671,302.855713 445.082184,295.821594 441.446594,288.614227 
	C440.885193,288.653076 440.323792,288.691895 439.762390,288.730743 
	C430.086182,316.232300 428.698975,345.508911 423.855194,374.167023 
	C420.281891,373.245697 419.833099,371.093170 419.167114,369.332245 
	C413.633850,354.701813 409.467255,339.839691 409.627991,323.929138 
	C409.749146,311.932251 409.907715,300.030304 413.798157,288.528625 
	C416.405518,280.820312 418.973083,273.093048 421.845764,265.482697 
	C423.034943,262.332306 422.908600,259.788361 420.826111,257.128448 
	C415.972595,250.929214 410.417328,245.460312 404.343231,240.470413 
	C401.496765,238.131989 398.271088,237.759506 394.917145,238.376099 
	C384.527954,240.286057 371.517944,253.221436 369.611206,263.815796 
	C365.912018,284.369324 366.959961,304.950409 371.943970,325.033447 
	C376.649597,343.994843 383.843445,362.264648 390.656952,380.593811 
	C391.399597,382.591553 393.288300,384.802704 391.339996,386.519958 
	C389.326416,388.294647 386.648346,387.173981 384.314941,386.169525 
	C374.640839,382.005249 367.747986,374.708466 361.705109,366.372162 
	C353.599884,355.190796 349.773407,342.215271 345.991730,328.926758 
	C344.277191,330.244904 344.026825,331.897736 343.848450,333.502289 
	C343.187866,339.445282 342.737640,345.414398 341.958435,351.340851 
	C340.445526,362.847900 340.616577,374.518829 338.455139,385.961731 
	C337.028076,393.516876 337.789795,394.602448 345.020264,396.175873 
	C345.995667,396.388123 346.947449,396.726654 347.929657,396.887543 
	C376.190948,401.516693 398.658173,416.089569 416.772949,437.674072 
	C427.995789,451.046570 435.624573,466.592316 442.111145,483.560120 
z"/>
</svg>